REM DIRINDEX 1\2,1\3,1\4,1\5
REM DIRNAME cjc087,folder01,folder02,folder03,folder04
TITLE ""
FILE "Chapter_01.mp3" MP3
  TRACK 01 AUDIO
    TITLE "0:"
    INDEX 01 00:00:00
  TRACK 02 AUDIO
    TITLE "5:cjc087_0001"
    INDEX 01 00:00:07
  TRACK 03 AUDIO
    TITLE "0:"
    INDEX 01 00:01:56
  TRACK 04 AUDIO
    TITLE "2:cjc087_0002"
    INDEX 01 00:03:23
  TRACK 05 AUDIO
    TITLE "0:"
    INDEX 01 00:15:58
  TRACK 06 AUDIO
    TITLE "5:cjc087_0003"
    INDEX 01 00:17:14
  TRACK 07 AUDIO
    TITLE "0:"
    INDEX 01 00:18:60
  TRACK 08 AUDIO
    TITLE "3:cjc087_0004"
    INDEX 01 00:19:58
  TRACK 09 AUDIO
    TITLE "4:cjc087_0005"
    INDEX 01 00:21:58
  TRACK 10 AUDIO
    TITLE "0:"
    INDEX 01 00:23:18
  TRACK 11 AUDIO
    TITLE "3:cjc087_0006"
    INDEX 01 00:24:16
  TRACK 12 AUDIO
    TITLE "4:cjc087_0007"
    INDEX 01 00:26:18
  TRACK 13 AUDIO
    TITLE "0:"
    INDEX 01 00:28:02
  TRACK 14 AUDIO
    TITLE "3:cjc087_0008"
    INDEX 01 00:28:74
  TRACK 15 AUDIO
    TITLE "4:cjc087_0009"
    INDEX 01 00:32:15
  TRACK 16 AUDIO
    TITLE "0:"
    INDEX 01 00:35:39
  TRACK 17 AUDIO
    TITLE "3:cjc087_0010"
    INDEX 01 00:36:38
  TRACK 18 AUDIO
    TITLE "4:cjc087_0011"
    INDEX 01 00:38:51
  TRACK 19 AUDIO
    TITLE "0:"
    INDEX 01 00:41:44
  TRACK 20 AUDIO
    TITLE "3:cjc087_0012"
    INDEX 01 00:42:49
  TRACK 21 AUDIO
    TITLE "4:cjc087_0013"
    INDEX 01 00:44:67
  TRACK 22 AUDIO
    TITLE "0:"
    INDEX 01 00:46:58
  TRACK 23 AUDIO
    TITLE "3:cjc087_0014"
    INDEX 01 00:47:56
  TRACK 24 AUDIO
    TITLE "4:cjc087_0015"
    INDEX 01 00:50:50
  TRACK 25 AUDIO
    TITLE "0:"
    INDEX 01 00:52:12
  TRACK 26 AUDIO
    TITLE "5:cjc087_0016"
    INDEX 01 00:53:49
  TRACK 27 AUDIO
    TITLE "0:"
    INDEX 01 00:55:12
  TRACK 28 AUDIO
    TITLE "3:cjc087_0017"
    INDEX 01 00:56:10
  TRACK 29 AUDIO
    TITLE "4:cjc087_0018"
    INDEX 01 00:57:66
  TRACK 30 AUDIO
    TITLE "0:"
    INDEX 01 00:59:43
  TRACK 31 AUDIO
    TITLE "3:cjc087_0019"
    INDEX 01 01:00:43
  TRACK 32 AUDIO
    TITLE "4:cjc087_0020"
    INDEX 01 01:03:35
  TRACK 33 AUDIO
    TITLE "0:"
    INDEX 01 01:06:02
  TRACK 34 AUDIO
    TITLE "3:cjc087_0021"
    INDEX 01 01:06:73
  TRACK 35 AUDIO
    TITLE "4:cjc087_0022"
    INDEX 01 01:08:60
  TRACK 36 AUDIO
    TITLE "0:"
    INDEX 01 01:10:71
  TRACK 37 AUDIO
    TITLE "3:cjc087_0023"
    INDEX 01 01:11:68
  TRACK 38 AUDIO
    TITLE "4:cjc087_0024"
    INDEX 01 01:14:00
  TRACK 39 AUDIO
    TITLE "0:"
    INDEX 01 01:16:12
  TRACK 40 AUDIO
    TITLE "3:cjc087_0025"
    INDEX 01 01:17:10
  TRACK 41 AUDIO
    TITLE "4:cjc087_0026"
    INDEX 01 01:21:27
  TRACK 42 AUDIO
    TITLE "0:"
    INDEX 01 01:25:06
  TRACK 43 AUDIO
    TITLE "5:cjc087_0027"
    INDEX 01 01:26:40
  TRACK 44 AUDIO
    TITLE "0:"
    INDEX 01 01:28:08
  TRACK 45 AUDIO
    TITLE "3:cjc087_0028"
    INDEX 01 01:29:05
  TRACK 46 AUDIO
    TITLE "4:cjc087_0029"
    INDEX 01 01:31:06
  TRACK 47 AUDIO
    TITLE "0:"
    INDEX 01 01:33:15
  TRACK 48 AUDIO
    TITLE "3:cjc087_0030"
    INDEX 01 01:34:14
  TRACK 49 AUDIO
    TITLE "4:cjc087_0031"
    INDEX 01 01:35:69
  TRACK 50 AUDIO
    TITLE "0:"
    INDEX 01 01:37:52
  TRACK 51 AUDIO
    TITLE "3:cjc087_0032"
    INDEX 01 01:38:51
  TRACK 52 AUDIO
    TITLE "4:cjc087_0033"
    INDEX 01 01:40:35
  TRACK 53 AUDIO
    TITLE "0:"
    INDEX 01 01:42:16
  TRACK 54 AUDIO
    TITLE "3:cjc087_0034"
    INDEX 01 01:43:13
  TRACK 55 AUDIO
    TITLE "4:cjc087_0035"
    INDEX 01 01:45:24
  TRACK 56 AUDIO
    TITLE "0:"
    INDEX 01 01:47:40
  TRACK 57 AUDIO
    TITLE "3:cjc087_0036"
    INDEX 01 01:48:38
  TRACK 58 AUDIO
    TITLE "4:cjc087_0037"
    INDEX 01 01:51:66
  TRACK 59 AUDIO
    TITLE "0:"
    INDEX 01 01:55:32
  TRACK 60 AUDIO
    TITLE "3:cjc087_0038"
    INDEX 01 01:56:32
  TRACK 61 AUDIO
    TITLE "4:cjc087_0039"
    INDEX 01 01:58:54
  TRACK 62 AUDIO
    TITLE "0:"
    INDEX 01 02:00:47
  TRACK 63 AUDIO
    TITLE "3:cjc087_0040"
    INDEX 01 02:01:46
  TRACK 64 AUDIO
    TITLE "4:cjc087_0041"
    INDEX 01 02:03:71
  TRACK 65 AUDIO
    TITLE "0:"
    INDEX 01 02:05:44
  TRACK 66 AUDIO
    TITLE "3:cjc087_0042"
    INDEX 01 02:06:42
  TRACK 67 AUDIO
    TITLE "4:cjc087_0043"
    INDEX 01 02:08:09
  TRACK 68 AUDIO
    TITLE "0:"
    INDEX 01 02:09:68
  TRACK 69 AUDIO
    TITLE "5:cjc087_0044"
    INDEX 01 02:11:29
  TRACK 70 AUDIO
    TITLE "0:"
    INDEX 01 02:12:70
  TRACK 71 AUDIO
    TITLE "3:cjc087_0045"
    INDEX 01 02:13:67
  TRACK 72 AUDIO
    TITLE "4:cjc087_0046"
    INDEX 01 02:15:45
  TRACK 73 AUDIO
    TITLE "0:"
    INDEX 01 02:17:06
  TRACK 74 AUDIO
    TITLE "3:cjc087_0047"
    INDEX 01 02:18:06
  TRACK 75 AUDIO
    TITLE "4:cjc087_0048"
    INDEX 01 02:20:20
  TRACK 76 AUDIO
    TITLE "0:"
    INDEX 01 02:23:07
  TRACK 77 AUDIO
    TITLE "3:cjc087_0049"
    INDEX 01 02:24:04
  TRACK 78 AUDIO
    TITLE "4:cjc087_0050"
    INDEX 01 02:26:46
  TRACK 79 AUDIO
    TITLE "0:"
    INDEX 01 02:29:53
  TRACK 80 AUDIO
    TITLE "3:cjc087_0051"
    INDEX 01 02:30:50
  TRACK 81 AUDIO
    TITLE "4:cjc087_0052"
    INDEX 01 02:32:43
  TRACK 82 AUDIO
    TITLE "0:"
    INDEX 01 02:34:26
  TRACK 83 AUDIO
    TITLE "3:cjc087_0053"
    INDEX 01 02:35:26
  TRACK 84 AUDIO
    TITLE "4:cjc087_0054"
    INDEX 01 02:37:34
  TRACK 85 AUDIO
    TITLE "0:"
    INDEX 01 02:39:55
  TRACK 86 AUDIO
    TITLE "3:cjc087_0055"
    INDEX 01 02:40:52
  TRACK 87 AUDIO
    TITLE "4:cjc087_0056"
    INDEX 01 02:42:18
  TRACK 88 AUDIO
    TITLE "0:"
    INDEX 01 02:44:33
  TRACK 89 AUDIO
    TITLE "3:cjc087_0057"
    INDEX 01 02:45:32
  TRACK 90 AUDIO
    TITLE "4:cjc087_0058"
    INDEX 01 02:47:35
  TRACK 91 AUDIO
    TITLE "0:"
    INDEX 01 02:49:44
  TRACK 92 AUDIO
    TITLE "3:cjc087_0059"
    INDEX 01 02:50:37
  TRACK 93 AUDIO
    TITLE "4:cjc087_0060"
    INDEX 01 02:53:12
  TRACK 94 AUDIO
    TITLE "0:"
    INDEX 01 02:55:56
  TRACK 95 AUDIO
    TITLE "5:cjc087_0061"
    INDEX 01 02:57:16
  TRACK 96 AUDIO
    TITLE "0:"
    INDEX 01 02:58:52
  TRACK 97 AUDIO
    TITLE "3:cjc087_0062"
    INDEX 01 02:59:50
  TRACK 98 AUDIO
    TITLE "4:cjc087_0063"
    INDEX 01 03:01:66
  TRACK 99 AUDIO
    TITLE "0:"
    INDEX 01 03:04:02
  TRACK 100 AUDIO
    TITLE "3:cjc087_0064"
    INDEX 01 03:05:01
  TRACK 101 AUDIO
    TITLE "4:cjc087_0065"
    INDEX 01 03:08:06
  TRACK 102 AUDIO
    TITLE "0:"
    INDEX 01 03:10:46
  TRACK 103 AUDIO
    TITLE "3:cjc087_0066"
    INDEX 01 03:11:45
  TRACK 104 AUDIO
    TITLE "4:cjc087_0067"
    INDEX 01 03:13:09
  TRACK 105 AUDIO
    TITLE "0:"
    INDEX 01 03:14:18
  TRACK 106 AUDIO
    TITLE "3:cjc087_0068"
    INDEX 01 03:15:17
  TRACK 107 AUDIO
    TITLE "4:cjc087_0069"
    INDEX 01 03:17:12
  TRACK 108 AUDIO
    TITLE "0:"
    INDEX 01 03:19:07
  TRACK 109 AUDIO
    TITLE "3:cjc087_0070"
    INDEX 01 03:20:07
  TRACK 110 AUDIO
    TITLE "4:cjc087_0071"
    INDEX 01 03:22:12
  TRACK 111 AUDIO
    TITLE "0:"
    INDEX 01 03:24:05
  TRACK 112 AUDIO
    TITLE "3:cjc087_0072"
    INDEX 01 03:25:04
  TRACK 113 AUDIO
    TITLE "4:cjc087_0073"
    INDEX 01 03:27:15
  TRACK 114 AUDIO
    TITLE "0:"
    INDEX 01 03:29:45
  TRACK 115 AUDIO
    TITLE "3:cjc087_0074"
    INDEX 01 03:30:42
  TRACK 116 AUDIO
    TITLE "4:cjc087_0075"
    INDEX 01 03:33:09
  TRACK 117 AUDIO
    TITLE "0:"
    INDEX 01 03:35:55
  TRACK 118 AUDIO
    TITLE "3:cjc087_0076"
    INDEX 01 03:36:53
  TRACK 119 AUDIO
    TITLE "4:cjc087_0077"
    INDEX 01 03:39:22
  TRACK 120 AUDIO
    TITLE "0:"
    INDEX 01 03:42:12
  TRACK 121 AUDIO
    TITLE "5:cjc087_0078"
    INDEX 01 03:43:49
  TRACK 122 AUDIO
    TITLE "0:"
    INDEX 01 03:45:19
  TRACK 123 AUDIO
    TITLE "3:cjc087_0079"
    INDEX 01 03:46:16
  TRACK 124 AUDIO
    TITLE "4:cjc087_0080"
    INDEX 01 03:48:44
  TRACK 125 AUDIO
    TITLE "0:"
    INDEX 01 03:50:41
  TRACK 126 AUDIO
    TITLE "3:cjc087_0081"
    INDEX 01 03:51:39
  TRACK 127 AUDIO
    TITLE "4:cjc087_0082"
    INDEX 01 03:54:10
  TRACK 128 AUDIO
    TITLE "0:"
    INDEX 01 03:57:22
  TRACK 129 AUDIO
    TITLE "3:cjc087_0083"
    INDEX 01 03:58:21
  TRACK 130 AUDIO
    TITLE "4:cjc087_0084"
    INDEX 01 03:59:72
  TRACK 131 AUDIO
    TITLE "0:"
    INDEX 01 04:01:35
  TRACK 132 AUDIO
    TITLE "3:cjc087_0085"
    INDEX 01 04:02:35
  TRACK 133 AUDIO
    TITLE "4:cjc087_0086"
    INDEX 01 04:04:20
  TRACK 134 AUDIO
    TITLE "0:"
    INDEX 01 04:05:68
  TRACK 135 AUDIO
    TITLE "3:cjc087_0087"
    INDEX 01 04:06:66
  TRACK 136 AUDIO
    TITLE "4:cjc087_0088"
    INDEX 01 04:09:66
  TRACK 137 AUDIO
    TITLE "0:"
    INDEX 01 04:12:57
  TRACK 138 AUDIO
    TITLE "3:cjc087_0089"
    INDEX 01 04:13:54
  TRACK 139 AUDIO
    TITLE "4:cjc087_0090"
    INDEX 01 04:15:43
  TRACK 140 AUDIO
    TITLE "0:"
    INDEX 01 04:17:03
  TRACK 141 AUDIO
    TITLE "3:cjc087_0091"
    INDEX 01 04:18:02
  TRACK 142 AUDIO
    TITLE "4:cjc087_0092"
    INDEX 01 04:19:70
  TRACK 143 AUDIO
    TITLE "0:"
    INDEX 01 04:22:71
  TRACK 144 AUDIO
    TITLE "3:cjc087_0093"
    INDEX 01 04:23:68
  TRACK 145 AUDIO
    TITLE "4:cjc087_0094"
    INDEX 01 04:26:00
  TRACK 146 AUDIO
    TITLE "0:"
    INDEX 01 04:27:74
  TRACK 147 AUDIO
    TITLE "3:cjc087_0095"
    INDEX 01 04:28:71
  TRACK 148 AUDIO
    TITLE "4:cjc087_0096"
    INDEX 01 04:31:40
  TRACK 149 AUDIO
    TITLE "0:"
    INDEX 01 04:34:60
  TRACK 150 AUDIO
    TITLE "5:cjc087_0097"
    INDEX 01 04:36:22
  TRACK 151 AUDIO
    TITLE "0:"
    INDEX 01 04:37:62
  TRACK 152 AUDIO
    TITLE "3:cjc087_0098"
    INDEX 01 04:38:60
  TRACK 153 AUDIO
    TITLE "4:cjc087_0099"
    INDEX 01 04:40:65
  TRACK 154 AUDIO
    TITLE "0:"
    INDEX 01 04:43:16
  TRACK 155 AUDIO
    TITLE "3:cjc087_0100"
    INDEX 01 04:44:13
  TRACK 156 AUDIO
    TITLE "4:cjc087_0101"
    INDEX 01 04:45:68
  TRACK 157 AUDIO
    TITLE "0:"
    INDEX 01 04:47:59
  TRACK 158 AUDIO
    TITLE "3:cjc087_0102"
    INDEX 01 04:48:58
  TRACK 159 AUDIO
    TITLE "4:cjc087_0103"
    INDEX 01 04:50:36
  TRACK 160 AUDIO
    TITLE "0:"
    INDEX 01 04:52:05
  TRACK 161 AUDIO
    TITLE "3:cjc087_0104"
    INDEX 01 04:53:05
  TRACK 162 AUDIO
    TITLE "4:cjc087_0105"
    INDEX 01 04:55:02
  TRACK 163 AUDIO
    TITLE "0:"
    INDEX 01 04:56:60
  TRACK 164 AUDIO
    TITLE "3:cjc087_0106"
    INDEX 01 04:57:57
  TRACK 165 AUDIO
    TITLE "4:cjc087_0107"
    INDEX 01 04:59:35
  TRACK 166 AUDIO
    TITLE "0:"
    INDEX 01 05:01:69
  TRACK 167 AUDIO
    TITLE "3:cjc087_0108"
    INDEX 01 05:02:64
  TRACK 168 AUDIO
    TITLE "4:cjc087_0109"
    INDEX 01 05:04:71
  TRACK 169 AUDIO
    TITLE "0:"
    INDEX 01 05:07:32
  TRACK 170 AUDIO
    TITLE "3:cjc087_0110"
    INDEX 01 05:08:30
  TRACK 171 AUDIO
    TITLE "4:cjc087_0111"
    INDEX 01 05:10:25
  TRACK 172 AUDIO
    TITLE "0:"
    INDEX 01 05:12:27
  TRACK 173 AUDIO
    TITLE "5:cjc087_0112"
    INDEX 01 05:13:60
  TRACK 174 AUDIO
    TITLE "0:"
    INDEX 01 05:15:32
  TRACK 175 AUDIO
    TITLE "3:cjc087_0113"
    INDEX 01 05:16:29
  TRACK 176 AUDIO
    TITLE "4:cjc087_0114"
    INDEX 01 05:18:40
  TRACK 177 AUDIO
    TITLE "0:"
    INDEX 01 05:20:54
  TRACK 178 AUDIO
    TITLE "3:cjc087_0115"
    INDEX 01 05:21:52
  TRACK 179 AUDIO
    TITLE "4:cjc087_0116"
    INDEX 01 05:24:05
  TRACK 180 AUDIO
    TITLE "0:"
    INDEX 01 05:26:45
  TRACK 181 AUDIO
    TITLE "3:cjc087_0117"
    INDEX 01 05:27:43
  TRACK 182 AUDIO
    TITLE "4:cjc087_0118"
    INDEX 01 05:29:24
  TRACK 183 AUDIO
    TITLE "0:"
    INDEX 01 05:30:72
  TRACK 184 AUDIO
    TITLE "3:cjc087_0119"
    INDEX 01 05:31:70
  TRACK 185 AUDIO
    TITLE "4:cjc087_0120"
    INDEX 01 05:34:29
  TRACK 186 AUDIO
    TITLE "0:"
    INDEX 01 05:37:00
  TRACK 187 AUDIO
    TITLE "3:cjc087_0121"
    INDEX 01 05:37:72
  TRACK 188 AUDIO
    TITLE "4:cjc087_0122"
    INDEX 01 05:39:69
  TRACK 189 AUDIO
    TITLE "0:"
    INDEX 01 05:41:53
  TRACK 190 AUDIO
    TITLE "3:cjc087_0123"
    INDEX 01 05:42:50
  TRACK 191 AUDIO
    TITLE "4:cjc087_0124"
    INDEX 01 05:45:46
  TRACK 192 AUDIO
    TITLE "0:"
    INDEX 01 05:48:43
  TRACK 193 AUDIO
    TITLE "5:cjc087_0125"
    INDEX 01 05:50:01
  TRACK 194 AUDIO
    TITLE "0:"
    INDEX 01 05:51:41
  TRACK 195 AUDIO
    TITLE "3:cjc087_0126"
    INDEX 01 05:52:41
  TRACK 196 AUDIO
    TITLE "4:cjc087_0127"
    INDEX 01 05:55:53
  TRACK 197 AUDIO
    TITLE "0:"
    INDEX 01 05:57:59
  TRACK 198 AUDIO
    TITLE "3:cjc087_0128"
    INDEX 01 05:58:53
  TRACK 199 AUDIO
    TITLE "4:cjc087_0129"
    INDEX 01 06:01:30
  TRACK 200 AUDIO
    TITLE "0:"
    INDEX 01 06:03:62
  TRACK 201 AUDIO
    TITLE "3:cjc087_0130"
    INDEX 01 06:04:60
  TRACK 202 AUDIO
    TITLE "4:cjc087_0131"
    INDEX 01 06:07:21
  TRACK 203 AUDIO
    TITLE "0:"
    INDEX 01 06:09:49
  TRACK 204 AUDIO
    TITLE "3:cjc087_0132"
    INDEX 01 06:10:46
  TRACK 205 AUDIO
    TITLE "4:cjc087_0133"
    INDEX 01 06:12:63
  TRACK 206 AUDIO
    TITLE "0:"
    INDEX 01 06:14:23
  TRACK 207 AUDIO
    TITLE "3:cjc087_0134"
    INDEX 01 06:15:20
  TRACK 208 AUDIO
    TITLE "4:cjc087_0135"
    INDEX 01 06:18:13
  TRACK 209 AUDIO
    TITLE "0:"
    INDEX 01 06:20:12
  TRACK 210 AUDIO
    TITLE "3:cjc087_0136"
    INDEX 01 06:21:09
  TRACK 211 AUDIO
    TITLE "4:cjc087_0137"
    INDEX 01 06:25:17
  TRACK 212 AUDIO
    TITLE "0:"
    INDEX 01 06:29:69
  TRACK 213 AUDIO
    TITLE "5:cjc087_0138"
    INDEX 01 06:31:23
  TRACK 214 AUDIO
    TITLE "0:"
    INDEX 01 06:32:70
  TRACK 215 AUDIO
    TITLE "3:cjc087_0139"
    INDEX 01 06:33:69
  TRACK 216 AUDIO
    TITLE "4:cjc087_0140"
    INDEX 01 06:36:14
  TRACK 217 AUDIO
    TITLE "0:"
    INDEX 01 06:38:21
  TRACK 218 AUDIO
    TITLE "3:cjc087_0141"
    INDEX 01 06:39:19
  TRACK 219 AUDIO
    TITLE "4:cjc087_0142"
    INDEX 01 06:41:29
  TRACK 220 AUDIO
    TITLE "0:"
    INDEX 01 06:43:09
  TRACK 221 AUDIO
    TITLE "3:cjc087_0143"
    INDEX 01 06:44:06
  TRACK 222 AUDIO
    TITLE "4:cjc087_0144"
    INDEX 01 06:46:62
  TRACK 223 AUDIO
    TITLE "0:"
    INDEX 01 06:49:13
  TRACK 224 AUDIO
    TITLE "3:cjc087_0145"
    INDEX 01 06:50:09
  TRACK 225 AUDIO
    TITLE "4:cjc087_0146"
    INDEX 01 06:52:06
  TRACK 226 AUDIO
    TITLE "0:"
    INDEX 01 06:54:34
  TRACK 227 AUDIO
    TITLE "3:cjc087_0147"
    INDEX 01 06:55:31
  TRACK 228 AUDIO
    TITLE "4:cjc087_0148"
    INDEX 01 06:57:38
  TRACK 229 AUDIO
    TITLE "0:"
    INDEX 01 06:59:47
  TRACK 230 AUDIO
    TITLE "3:cjc087_0149"
    INDEX 01 07:00:44
  TRACK 231 AUDIO
    TITLE "4:cjc087_0150"
    INDEX 01 07:03:21
  TRACK 232 AUDIO
    TITLE "0:"
    INDEX 01 07:05:38
  TRACK 233 AUDIO
    TITLE "3:cjc087_0151"
    INDEX 01 07:06:37
  TRACK 234 AUDIO
    TITLE "4:cjc087_0152"
    INDEX 01 07:08:44
  TRACK 235 AUDIO
    TITLE "0:"
    INDEX 01 07:10:13
  TRACK 236 AUDIO
    TITLE "3:cjc087_0153"
    INDEX 01 07:11:11
  TRACK 237 AUDIO
    TITLE "4:cjc087_0154"
    INDEX 01 07:13:31
  TRACK 238 AUDIO
    TITLE "0:"
    INDEX 01 07:15:30
  TRACK 239 AUDIO
    TITLE "2:cjc087_0155"
    INDEX 01 07:16:67
  TRACK 240 AUDIO
    TITLE "0:"
    INDEX 01 07:45:63
  TRACK 241 AUDIO
    TITLE "5:cjc087_0156"
    INDEX 01 07:47:26
  TRACK 242 AUDIO
    TITLE "0:"
    INDEX 01 07:49:13
  TRACK 243 AUDIO
    TITLE "3:cjc087_0157"
    INDEX 01 07:50:11
  TRACK 244 AUDIO
    TITLE "4:cjc087_0158"
    INDEX 01 07:52:47
  TRACK 245 AUDIO
    TITLE "0:"
    INDEX 01 07:54:40
  TRACK 246 AUDIO
    TITLE "3:cjc087_0159"
    INDEX 01 07:55:38
  TRACK 247 AUDIO
    TITLE "4:cjc087_0160"
    INDEX 01 07:57:19
  TRACK 248 AUDIO
    TITLE "0:"
    INDEX 01 07:58:65
  TRACK 249 AUDIO
    TITLE "3:cjc087_0161"
    INDEX 01 07:59:61
  TRACK 250 AUDIO
    TITLE "4:cjc087_0162"
    INDEX 01 08:02:02
  TRACK 251 AUDIO
    TITLE "0:"
    INDEX 01 08:03:51
  TRACK 252 AUDIO
    TITLE "3:cjc087_0163"
    INDEX 01 08:04:50
  TRACK 253 AUDIO
    TITLE "4:cjc087_0164"
    INDEX 01 08:06:26
  TRACK 254 AUDIO
    TITLE "0:"
    INDEX 01 08:07:72
  TRACK 255 AUDIO
    TITLE "3:cjc087_0165"
    INDEX 01 08:08:70
  TRACK 256 AUDIO
    TITLE "4:cjc087_0166"
    INDEX 01 08:11:64
  TRACK 257 AUDIO
    TITLE "0:"
    INDEX 01 08:15:15
  TRACK 258 AUDIO
    TITLE "3:cjc087_0167"
    INDEX 01 08:16:12
  TRACK 259 AUDIO
    TITLE "4:cjc087_0168"
    INDEX 01 08:19:65
  TRACK 260 AUDIO
    TITLE "0:"
    INDEX 01 08:23:20
  TRACK 261 AUDIO
    TITLE "5:cjc087_0169"
    INDEX 01 08:24:55
  TRACK 262 AUDIO
    TITLE "0:"
    INDEX 01 08:26:34
  TRACK 263 AUDIO
    TITLE "3:cjc087_0170"
    INDEX 01 08:27:32
  TRACK 264 AUDIO
    TITLE "4:cjc087_0171"
    INDEX 01 08:29:23
  TRACK 265 AUDIO
    TITLE "0:"
    INDEX 01 08:31:61
  TRACK 266 AUDIO
    TITLE "3:cjc087_0172"
    INDEX 01 08:32:60
  TRACK 267 AUDIO
    TITLE "4:cjc087_0173"
    INDEX 01 08:35:53
  TRACK 268 AUDIO
    TITLE "0:"
    INDEX 01 08:38:12
  TRACK 269 AUDIO
    TITLE "3:cjc087_0174"
    INDEX 01 08:39:11
  TRACK 270 AUDIO
    TITLE "4:cjc087_0175"
    INDEX 01 08:41:47
  TRACK 271 AUDIO
    TITLE "0:"
    INDEX 01 08:43:66
  TRACK 272 AUDIO
    TITLE "3:cjc087_0176"
    INDEX 01 08:44:63
  TRACK 273 AUDIO
    TITLE "4:cjc087_0177"
    INDEX 01 08:47:09
  TRACK 274 AUDIO
    TITLE "0:"
    INDEX 01 08:48:42
  TRACK 275 AUDIO
    TITLE "3:cjc087_0178"
    INDEX 01 08:49:39
  TRACK 276 AUDIO
    TITLE "4:cjc087_0179"
    INDEX 01 08:51:56
  TRACK 277 AUDIO
    TITLE "0:"
    INDEX 01 08:54:03
  TRACK 278 AUDIO
    TITLE "3:cjc087_0180"
    INDEX 01 08:55:01
  TRACK 279 AUDIO
    TITLE "4:cjc087_0181"
    INDEX 01 08:58:17
  TRACK 280 AUDIO
    TITLE "0:"
    INDEX 01 09:03:27
  TRACK 281 AUDIO
    TITLE "5:cjc087_0182"
    INDEX 01 09:04:62
  TRACK 282 AUDIO
    TITLE "0:"
    INDEX 01 09:06:47
  TRACK 283 AUDIO
    TITLE "3:cjc087_0183"
    INDEX 01 09:07:45
  TRACK 284 AUDIO
    TITLE "4:cjc087_0184"
    INDEX 01 09:09:42
  TRACK 285 AUDIO
    TITLE "0:"
    INDEX 01 09:11:41
  TRACK 286 AUDIO
    TITLE "3:cjc087_0185"
    INDEX 01 09:12:40
  TRACK 287 AUDIO
    TITLE "4:cjc087_0186"
    INDEX 01 09:14:14
  TRACK 288 AUDIO
    TITLE "0:"
    INDEX 01 09:16:16
  TRACK 289 AUDIO
    TITLE "3:cjc087_0187"
    INDEX 01 09:17:14
  TRACK 290 AUDIO
    TITLE "4:cjc087_0188"
    INDEX 01 09:18:72
  TRACK 291 AUDIO
    TITLE "0:"
    INDEX 01 09:20:16
  TRACK 292 AUDIO
    TITLE "3:cjc087_0189"
    INDEX 01 09:21:14
  TRACK 293 AUDIO
    TITLE "4:cjc087_0190"
    INDEX 01 09:23:07
  TRACK 294 AUDIO
    TITLE "0:"
    INDEX 01 09:25:72
  TRACK 295 AUDIO
    TITLE "3:cjc087_0191"
    INDEX 01 09:26:70
  TRACK 296 AUDIO
    TITLE "4:cjc087_0192"
    INDEX 01 09:28:67
  TRACK 297 AUDIO
    TITLE "0:"
    INDEX 01 09:31:34
  TRACK 298 AUDIO
    TITLE "3:cjc087_0193"
    INDEX 01 09:32:31
  TRACK 299 AUDIO
    TITLE "4:cjc087_0194"
    INDEX 01 09:34:36
  TRACK 300 AUDIO
    TITLE "0:"
    INDEX 01 09:36:17
  TRACK 301 AUDIO
    TITLE "3:cjc087_0195"
    INDEX 01 09:37:15
  TRACK 302 AUDIO
    TITLE "4:cjc087_0196"
    INDEX 01 09:39:39
  TRACK 303 AUDIO
    TITLE "0:"
    INDEX 01 09:42:37
  TRACK 304 AUDIO
    TITLE "5:cjc087_0197"
    INDEX 01 09:43:74
  TRACK 305 AUDIO
    TITLE "0:"
    INDEX 01 09:45:53
  TRACK 306 AUDIO
    TITLE "3:cjc087_0198"
    INDEX 01 09:46:49
  TRACK 307 AUDIO
    TITLE "4:cjc087_0199"
    INDEX 01 09:48:69
  TRACK 308 AUDIO
    TITLE "0:"
    INDEX 01 09:50:39
  TRACK 309 AUDIO
    TITLE "3:cjc087_0200"
    INDEX 01 09:51:34
  TRACK 310 AUDIO
    TITLE "4:cjc087_0201"
    INDEX 01 09:53:55
  TRACK 311 AUDIO
    TITLE "0:"
    INDEX 01 09:56:08
  TRACK 312 AUDIO
    TITLE "3:cjc087_0202"
    INDEX 01 09:57:06
  TRACK 313 AUDIO
    TITLE "4:cjc087_0203"
    INDEX 01 09:59:24
  TRACK 314 AUDIO
    TITLE "0:"
    INDEX 01 10:01:25
  TRACK 315 AUDIO
    TITLE "3:cjc087_0204"
    INDEX 01 10:02:22
  TRACK 316 AUDIO
    TITLE "4:cjc087_0205"
    INDEX 01 10:04:15
  TRACK 317 AUDIO
    TITLE "0:"
    INDEX 01 10:06:46
  TRACK 318 AUDIO
    TITLE "3:cjc087_0206"
    INDEX 01 10:07:43
  TRACK 319 AUDIO
    TITLE "4:cjc087_0207"
    INDEX 01 10:09:40
  TRACK 320 AUDIO
    TITLE "0:"
    INDEX 01 10:10:57
  TRACK 321 AUDIO
    TITLE "3:cjc087_0208"
    INDEX 01 10:11:55
  TRACK 322 AUDIO
    TITLE "4:cjc087_0209"
    INDEX 01 10:14:14
  TRACK 323 AUDIO
    TITLE "0:"
    INDEX 01 10:16:64
  TRACK 324 AUDIO
    TITLE "3:cjc087_0210"
    INDEX 01 10:17:63
  TRACK 325 AUDIO
    TITLE "4:cjc087_0211"
    INDEX 01 10:20:44
  TRACK 326 AUDIO
    TITLE "0:"
    INDEX 01 10:22:66
  TRACK 327 AUDIO
    TITLE "5:cjc087_0212"
    INDEX 01 10:24:26
  TRACK 328 AUDIO
    TITLE "0:"
    INDEX 01 10:26:05
  TRACK 329 AUDIO
    TITLE "3:cjc087_0213"
    INDEX 01 10:27:01
  TRACK 330 AUDIO
    TITLE "4:cjc087_0214"
    INDEX 01 10:28:65
  TRACK 331 AUDIO
    TITLE "0:"
    INDEX 01 10:30:60
  TRACK 332 AUDIO
    TITLE "3:cjc087_0215"
    INDEX 01 10:31:55
  TRACK 333 AUDIO
    TITLE "4:cjc087_0216"
    INDEX 01 10:34:46
  TRACK 334 AUDIO
    TITLE "0:"
    INDEX 01 10:37:44
  TRACK 335 AUDIO
    TITLE "3:cjc087_0217"
    INDEX 01 10:38:40
  TRACK 336 AUDIO
    TITLE "4:cjc087_0218"
    INDEX 01 10:40:39
  TRACK 337 AUDIO
    TITLE "0:"
    INDEX 01 10:42:24
  TRACK 338 AUDIO
    TITLE "3:cjc087_0219"
    INDEX 01 10:43:21
  TRACK 339 AUDIO
    TITLE "4:cjc087_0220"
    INDEX 01 10:45:42
  TRACK 340 AUDIO
    TITLE "0:"
    INDEX 01 10:48:21
  TRACK 341 AUDIO
    TITLE "3:cjc087_0221"
    INDEX 01 10:49:18
  TRACK 342 AUDIO
    TITLE "4:cjc087_0222"
    INDEX 01 10:51:37
  TRACK 343 AUDIO
    TITLE "0:"
    INDEX 01 10:53:45
  TRACK 344 AUDIO
    TITLE "3:cjc087_0223"
    INDEX 01 10:54:43
  TRACK 345 AUDIO
    TITLE "4:cjc087_0224"
    INDEX 01 10:57:39
  TRACK 346 AUDIO
    TITLE "0:"
    INDEX 01 10:59:65
  TRACK 347 AUDIO
    TITLE "3:cjc087_0225"
    INDEX 01 11:00:63
  TRACK 348 AUDIO
    TITLE "4:cjc087_0226"
    INDEX 01 11:03:28
  TRACK 349 AUDIO
    TITLE "0:"
    INDEX 01 11:05:54
  TRACK 350 AUDIO
    TITLE "2:cjc087_0227"
    INDEX 01 11:07:16
  TRACK 351 AUDIO
    TITLE "0:"
    INDEX 01 11:13:58
  TRACK 352 AUDIO
    TITLE "5:cjc087_0228"
    INDEX 01 11:15:19
  TRACK 353 AUDIO
    TITLE "0:"
    INDEX 01 11:17:12
  TRACK 354 AUDIO
    TITLE "3:cjc087_0229"
    INDEX 01 11:18:10
  TRACK 355 AUDIO
    TITLE "4:cjc087_0230"
    INDEX 01 11:22:27
  TRACK 356 AUDIO
    TITLE "0:"
    INDEX 01 11:26:27
  TRACK 357 AUDIO
    TITLE "3:cjc087_0231"
    INDEX 01 11:27:25
  TRACK 358 AUDIO
    TITLE "4:cjc087_0232"
    INDEX 01 11:30:58
  TRACK 359 AUDIO
    TITLE "0:"
    INDEX 01 11:34:17
  TRACK 360 AUDIO
    TITLE "3:cjc087_0233"
    INDEX 01 11:35:14
  TRACK 361 AUDIO
    TITLE "4:cjc087_0234"
    INDEX 01 11:37:27
  TRACK 362 AUDIO
    TITLE "0:"
    INDEX 01 11:39:18
  TRACK 363 AUDIO
    TITLE "3:cjc087_0235"
    INDEX 01 11:40:17
  TRACK 364 AUDIO
    TITLE "4:cjc087_0236"
    INDEX 01 11:42:24
  TRACK 365 AUDIO
    TITLE "0:"
    INDEX 01 11:44:23
  TRACK 366 AUDIO
    TITLE "3:cjc087_0237"
    INDEX 01 11:45:22
  TRACK 367 AUDIO
    TITLE "4:cjc087_0238"
    INDEX 01 11:47:63
  TRACK 368 AUDIO
    TITLE "0:"
    INDEX 01 11:49:57
  TRACK 369 AUDIO
    TITLE "3:cjc087_0239"
    INDEX 01 11:50:55
  TRACK 370 AUDIO
    TITLE "4:cjc087_0240"
    INDEX 01 11:52:72
  TRACK 371 AUDIO
    TITLE "0:"
    INDEX 01 11:54:39
  TRACK 372 AUDIO
    TITLE "3:cjc087_0241"
    INDEX 01 11:55:37
  TRACK 373 AUDIO
    TITLE "4:cjc087_0242"
    INDEX 01 11:57:32
  TRACK 374 AUDIO
    TITLE "0:"
    INDEX 01 11:59:01
  TRACK 375 AUDIO
    TITLE "5:cjc087_0243"
    INDEX 01 12:00:36
  TRACK 376 AUDIO
    TITLE "0:"
    INDEX 01 12:02:21
  TRACK 377 AUDIO
    TITLE "3:cjc087_0244"
    INDEX 01 12:03:20
  TRACK 378 AUDIO
    TITLE "4:cjc087_0245"
    INDEX 01 12:05:57
  TRACK 379 AUDIO
    TITLE "0:"
    INDEX 01 12:08:27
  TRACK 380 AUDIO
    TITLE "3:cjc087_0246"
    INDEX 01 12:09:25
  TRACK 381 AUDIO
    TITLE "4:cjc087_0247"
    INDEX 01 12:11:45
  TRACK 382 AUDIO
    TITLE "0:"
    INDEX 01 12:12:74
  TRACK 383 AUDIO
    TITLE "3:cjc087_0248"
    INDEX 01 12:13:72
  TRACK 384 AUDIO
    TITLE "4:cjc087_0249"
    INDEX 01 12:16:37
  TRACK 385 AUDIO
    TITLE "0:"
    INDEX 01 12:18:47
  TRACK 386 AUDIO
    TITLE "3:cjc087_0250"
    INDEX 01 12:19:45
  TRACK 387 AUDIO
    TITLE "4:cjc087_0251"
    INDEX 01 12:22:37
  TRACK 388 AUDIO
    TITLE "0:"
    INDEX 01 12:26:06
  TRACK 389 AUDIO
    TITLE "3:cjc087_0252"
    INDEX 01 12:27:01
  TRACK 390 AUDIO
    TITLE "4:cjc087_0253"
    INDEX 01 12:29:67
  TRACK 391 AUDIO
    TITLE "0:"
    INDEX 01 12:32:06
  TRACK 392 AUDIO
    TITLE "3:cjc087_0254"
    INDEX 01 12:33:04
  TRACK 393 AUDIO
    TITLE "4:cjc087_0255"
    INDEX 01 12:34:46
  TRACK 394 AUDIO
    TITLE "0:"
    INDEX 01 12:36:41
  TRACK 395 AUDIO
    TITLE "3:cjc087_0256"
    INDEX 01 12:37:39
  TRACK 396 AUDIO
    TITLE "4:cjc087_0257"
    INDEX 01 12:39:73
  TRACK 397 AUDIO
    TITLE "0:"
    INDEX 01 12:42:24
  TRACK 398 AUDIO
    TITLE "5:cjc087_0258"
    INDEX 01 12:43:61
  TRACK 399 AUDIO
    TITLE "0:"
    INDEX 01 12:45:48
  TRACK 400 AUDIO
    TITLE "3:cjc087_0259"
    INDEX 01 12:46:46
  TRACK 401 AUDIO
    TITLE "4:cjc087_0260"
    INDEX 01 12:48:41
  TRACK 402 AUDIO
    TITLE "0:"
    INDEX 01 12:50:10
  TRACK 403 AUDIO
    TITLE "3:cjc087_0261"
    INDEX 01 12:51:10
  TRACK 404 AUDIO
    TITLE "4:cjc087_0262"
    INDEX 01 12:53:34
  TRACK 405 AUDIO
    TITLE "0:"
    INDEX 01 12:55:35
  TRACK 406 AUDIO
    TITLE "3:cjc087_0263"
    INDEX 01 12:56:32
  TRACK 407 AUDIO
    TITLE "4:cjc087_0264"
    INDEX 01 12:58:53
  TRACK 408 AUDIO
    TITLE "0:"
    INDEX 01 13:00:32
  TRACK 409 AUDIO
    TITLE "3:cjc087_0265"
    INDEX 01 13:01:30
  TRACK 410 AUDIO
    TITLE "4:cjc087_0266"
    INDEX 01 13:04:14
  TRACK 411 AUDIO
    TITLE "0:"
    INDEX 01 13:06:03
  TRACK 412 AUDIO
    TITLE "3:cjc087_0267"
    INDEX 01 13:07:01
  TRACK 413 AUDIO
    TITLE "4:cjc087_0268"
    INDEX 01 13:09:68
  TRACK 414 AUDIO
    TITLE "0:"
    INDEX 01 13:12:43
  TRACK 415 AUDIO
    TITLE "3:cjc087_0269"
    INDEX 01 13:13:43
  TRACK 416 AUDIO
    TITLE "4:cjc087_0270"
    INDEX 01 13:16:45
  TRACK 417 AUDIO
    TITLE "0:"
    INDEX 01 13:19:63
  TRACK 418 AUDIO
    TITLE "3:cjc087_0271"
    INDEX 01 13:20:58
  TRACK 419 AUDIO
    TITLE "4:cjc087_0272"
    INDEX 01 13:23:35
  TRACK 420 AUDIO
    TITLE "0:"
    INDEX 01 13:25:40
  TRACK 421 AUDIO
    TITLE "5:cjc087_0273"
    INDEX 01 13:27:02
  TRACK 422 AUDIO
    TITLE "0:"
    INDEX 01 13:28:62
  TRACK 423 AUDIO
    TITLE "3:cjc087_0274"
    INDEX 01 13:29:59
  TRACK 424 AUDIO
    TITLE "4:cjc087_0275"
    INDEX 01 13:31:70
  TRACK 425 AUDIO
    TITLE "0:"
    INDEX 01 13:34:41
  TRACK 426 AUDIO
    TITLE "3:cjc087_0276"
    INDEX 01 13:35:40
  TRACK 427 AUDIO
    TITLE "4:cjc087_0277"
    INDEX 01 13:38:09
  TRACK 428 AUDIO
    TITLE "0:"
    INDEX 01 13:41:04
  TRACK 429 AUDIO
    TITLE "3:cjc087_0278"
    INDEX 01 13:41:74
  TRACK 430 AUDIO
    TITLE "4:cjc087_0279"
    INDEX 01 13:44:59
  TRACK 431 AUDIO
    TITLE "0:"
    INDEX 01 13:47:69
  TRACK 432 AUDIO
    TITLE "3:cjc087_0280"
    INDEX 01 13:48:66
  TRACK 433 AUDIO
    TITLE "4:cjc087_0281"
    INDEX 01 13:52:07
  TRACK 434 AUDIO
    TITLE "0:"
    INDEX 01 13:54:69
  TRACK 435 AUDIO
    TITLE "3:cjc087_0282"
    INDEX 01 13:55:66
  TRACK 436 AUDIO
    TITLE "4:cjc087_0283"
    INDEX 01 13:58:28
  TRACK 437 AUDIO
    TITLE "0:"
    INDEX 01 14:00:11
  TRACK 438 AUDIO
    TITLE "3:cjc087_0284"
    INDEX 01 14:01:10
  TRACK 439 AUDIO
    TITLE "4:cjc087_0285"
    INDEX 01 14:03:64
  TRACK 440 AUDIO
    TITLE "0:"
    INDEX 01 14:06:43
  TRACK 441 AUDIO
    TITLE "3:cjc087_0286"
    INDEX 01 14:07:40
  TRACK 442 AUDIO
    TITLE "4:cjc087_0287"
    INDEX 01 14:10:25
  TRACK 443 AUDIO
    TITLE "0:"
    INDEX 01 14:12:57
  TRACK 444 AUDIO
    TITLE "5:cjc087_0288"
    INDEX 01 14:14:17
  TRACK 445 AUDIO
    TITLE "0:"
    INDEX 01 14:15:67
  TRACK 446 AUDIO
    TITLE "3:cjc087_0289"
    INDEX 01 14:16:65
  TRACK 447 AUDIO
    TITLE "4:cjc087_0290"
    INDEX 01 14:19:57
  TRACK 448 AUDIO
    TITLE "0:"
    INDEX 01 14:22:73
  TRACK 449 AUDIO
    TITLE "3:cjc087_0291"
    INDEX 01 14:23:69
  TRACK 450 AUDIO
    TITLE "4:cjc087_0292"
    INDEX 01 14:26:45
  TRACK 451 AUDIO
    TITLE "0:"
    INDEX 01 14:29:30
  TRACK 452 AUDIO
    TITLE "3:cjc087_0293"
    INDEX 01 14:30:28
  TRACK 453 AUDIO
    TITLE "4:cjc087_0294"
    INDEX 01 14:33:28
  TRACK 454 AUDIO
    TITLE "0:"
    INDEX 01 14:36:44
  TRACK 455 AUDIO
    TITLE "3:cjc087_0295"
    INDEX 01 14:37:41
  TRACK 456 AUDIO
    TITLE "4:cjc087_0296"
    INDEX 01 14:39:72
  TRACK 457 AUDIO
    TITLE "0:"
    INDEX 01 14:41:65
  TRACK 458 AUDIO
    TITLE "3:cjc087_0297"
    INDEX 01 14:42:62
  TRACK 459 AUDIO
    TITLE "4:cjc087_0298"
    INDEX 01 14:45:35
  TRACK 460 AUDIO
    TITLE "0:"
    INDEX 01 14:48:10
  TRACK 461 AUDIO
    TITLE "3:cjc087_0299"
    INDEX 01 14:49:07
  TRACK 462 AUDIO
    TITLE "4:cjc087_0300"
    INDEX 01 14:51:10
  TRACK 463 AUDIO
    TITLE "0:"
    INDEX 01 14:52:72
  TRACK 464 AUDIO
    TITLE "3:cjc087_0301"
    INDEX 01 14:53:70
  TRACK 465 AUDIO
    TITLE "4:cjc087_0302"
    INDEX 01 14:56:54
  TRACK 466 AUDIO
    TITLE "0:"
    INDEX 01 14:58:40
  TRACK 467 AUDIO
    TITLE "3:cjc087_0303"
    INDEX 01 14:59:35
  TRACK 468 AUDIO
    TITLE "4:cjc087_0304"
    INDEX 01 15:01:44
  TRACK 469 AUDIO
    TITLE "0:"
    INDEX 01 15:03:23
  TRACK 470 AUDIO
    TITLE "2:cjc087_0305"
    INDEX 01 15:04:62
  TRACK 471 AUDIO
    TITLE "0:"
    INDEX 01 15:15:42
  TRACK 472 AUDIO
    TITLE "5:cjc087_0306"
    INDEX 01 15:17:00
  TRACK 473 AUDIO
    TITLE "0:"
    INDEX 01 15:18:74
  TRACK 474 AUDIO
    TITLE "3:cjc087_0307"
    INDEX 01 15:19:71
  TRACK 475 AUDIO
    TITLE "4:cjc087_0308"
    INDEX 01 15:21:70
  TRACK 476 AUDIO
    TITLE "0:"
    INDEX 01 15:23:45
  TRACK 477 AUDIO
    TITLE "3:cjc087_0309"
    INDEX 01 15:24:43
  TRACK 478 AUDIO
    TITLE "4:cjc087_0310"
    INDEX 01 15:26:22
  TRACK 479 AUDIO
    TITLE "0:"
    INDEX 01 15:27:53
  TRACK 480 AUDIO
    TITLE "3:cjc087_0311"
    INDEX 01 15:28:50
  TRACK 481 AUDIO
    TITLE "4:cjc087_0312"
    INDEX 01 15:30:71
  TRACK 482 AUDIO
    TITLE "0:"
    INDEX 01 15:33:05
  TRACK 483 AUDIO
    TITLE "3:cjc087_0313"
    INDEX 01 15:34:02
  TRACK 484 AUDIO
    TITLE "4:cjc087_0314"
    INDEX 01 15:36:13
  TRACK 485 AUDIO
    TITLE "0:"
    INDEX 01 15:37:26
  TRACK 486 AUDIO
    TITLE "3:cjc087_0315"
    INDEX 01 15:38:23
  TRACK 487 AUDIO
    TITLE "4:cjc087_0316"
    INDEX 01 15:40:22
  TRACK 488 AUDIO
    TITLE "0:"
    INDEX 01 15:42:15
  TRACK 489 AUDIO
    TITLE "3:cjc087_0317"
    INDEX 01 15:43:13
  TRACK 490 AUDIO
    TITLE "4:cjc087_0318"
    INDEX 01 15:45:70
  TRACK 491 AUDIO
    TITLE "0:"
    INDEX 01 15:48:73
  TRACK 492 AUDIO
    TITLE "3:cjc087_0319"
    INDEX 01 15:49:70
  TRACK 493 AUDIO
    TITLE "4:cjc087_0320"
    INDEX 01 15:52:29
  TRACK 494 AUDIO
    TITLE "0:"
    INDEX 01 15:54:03
  TRACK 495 AUDIO
    TITLE "5:cjc087_0321"
    INDEX 01 15:55:39
  TRACK 496 AUDIO
    TITLE "0:"
    INDEX 01 15:57:31
  TRACK 497 AUDIO
    TITLE "3:cjc087_0322"
    INDEX 01 15:58:26
  TRACK 498 AUDIO
    TITLE "4:cjc087_0323"
    INDEX 01 16:00:35
  TRACK 499 AUDIO
    TITLE "0:"
    INDEX 01 16:02:04
  TRACK 500 AUDIO
    TITLE "3:cjc087_0324"
    INDEX 01 16:03:00
  TRACK 501 AUDIO
    TITLE "4:cjc087_0325"
    INDEX 01 16:06:14
  TRACK 502 AUDIO
    TITLE "0:"
    INDEX 01 16:08:09
  TRACK 503 AUDIO
    TITLE "3:cjc087_0326"
    INDEX 01 16:09:06
  TRACK 504 AUDIO
    TITLE "4:cjc087_0327"
    INDEX 01 16:11:39
  TRACK 505 AUDIO
    TITLE "0:"
    INDEX 01 16:14:02
  TRACK 506 AUDIO
    TITLE "3:cjc087_0328"
    INDEX 01 16:14:74
  TRACK 507 AUDIO
    TITLE "4:cjc087_0329"
    INDEX 01 16:16:73
  TRACK 508 AUDIO
    TITLE "0:"
    INDEX 01 16:18:33
  TRACK 509 AUDIO
    TITLE "3:cjc087_0330"
    INDEX 01 16:19:30
  TRACK 510 AUDIO
    TITLE "4:cjc087_0331"
    INDEX 01 16:22:19
  TRACK 511 AUDIO
    TITLE "0:"
    INDEX 01 16:24:74
  TRACK 512 AUDIO
    TITLE "3:cjc087_0332"
    INDEX 01 16:25:72
  TRACK 513 AUDIO
    TITLE "4:cjc087_0333"
    INDEX 01 16:28:19
  TRACK 514 AUDIO
    TITLE "0:"
    INDEX 01 16:30:59
  TRACK 515 AUDIO
    TITLE "3:cjc087_0334"
    INDEX 01 16:31:57
  TRACK 516 AUDIO
    TITLE "4:cjc087_0335"
    INDEX 01 16:34:04
  TRACK 517 AUDIO
    TITLE "0:"
    INDEX 01 16:35:47
